<mxfile host="app.diagrams.net" modified="2023-12-23T21:44:24.277Z" agent="Mozilla/5.0 (Macintosh; Intel Mac OS X 10_15_7) AppleWebKit/537.36 (KHTML, like Gecko) Chrome/120.0.0.0 Safari/537.36" etag="lGh6radXOKJMxYVHzYYu" version="22.1.11" type="device">
  <diagram name="Page-1" id="Pm34Jji8U6q-gZGpyimg">
    <mxGraphModel dx="1390" dy="689" grid="1" gridSize="10" guides="1" tooltips="1" connect="1" arrows="1" fold="1" page="1" pageScale="1" pageWidth="850" pageHeight="1100" math="0" shadow="0">
      <root>
        <mxCell id="0" />
        <mxCell id="1" parent="0" />
        <mxCell id="LGGWUkX94mFkgEQ670xB-3" value="" style="endArrow=none;html=1;curved=1;" edge="1" parent="1">
          <mxGeometry width="50" height="50" relative="1" as="geometry">
            <mxPoint x="200" y="160" as="sourcePoint" />
            <mxPoint x="680" y="160" as="targetPoint" />
            <Array as="points">
              <mxPoint x="280" y="560" />
              <mxPoint x="440" y="240" />
              <mxPoint x="600" y="560" />
            </Array>
          </mxGeometry>
        </mxCell>
        <mxCell id="LGGWUkX94mFkgEQ670xB-4" value="" style="ellipse;whiteSpace=wrap;html=1;aspect=fixed;" vertex="1" parent="1">
          <mxGeometry x="299" y="415" width="30" height="30" as="geometry" />
        </mxCell>
        <mxCell id="LGGWUkX94mFkgEQ670xB-5" value="&lt;font style=&quot;font-size: 15px;&quot; face=&quot;Verdana&quot;&gt;healthy&lt;/font&gt;" style="text;html=1;align=center;verticalAlign=middle;resizable=0;points=[];autosize=1;strokeColor=none;fillColor=none;" vertex="1" parent="1">
          <mxGeometry x="274" y="450" width="80" height="30" as="geometry" />
        </mxCell>
        <mxCell id="LGGWUkX94mFkgEQ670xB-6" value="&lt;font style=&quot;font-size: 15px;&quot; face=&quot;Verdana&quot;&gt;depressed&lt;/font&gt;" style="text;html=1;align=center;verticalAlign=middle;resizable=0;points=[];autosize=1;strokeColor=none;fillColor=none;" vertex="1" parent="1">
          <mxGeometry x="515" y="450" width="100" height="30" as="geometry" />
        </mxCell>
      </root>
    </mxGraphModel>
  </diagram>
</mxfile>
